<svg id="Layer_1" data-name="Layer 1" xmlns="http://www.w3.org/2000/svg" viewBox="0 135 900 231"><defs><style>.cls-1{fill:#2f3030;}.cls-2{fill:#e23445;}.cls-3{fill:#fff;}</style></defs><title>Kiprosh</title><path class="cls-1" d="M268.69,179.79h27.89v88.06l.36.18,31.56-38.34h31.73l-34.48,40.36L362.8,320h-33L296.94,273.9l-.36.18V320H268.69Z"/><rect class="cls-1" x="375.29" y="229.69" width="27.88" height="90.26"/><path class="cls-1" d="M454.18,360.31H426.29V229.69h27.34v4.58l.36.19a39,39,0,0,1,22.38-6.79c23.12,0,42.75,18.35,42.75,46.41,0,29-20.73,47.89-47.15,47.89a40.6,40.6,0,0,1-17.43-3.49l-.36.18Zm14.31-60.91c14.49,0,22.56-10.46,22.56-23.85C491.05,262,483,251,469.22,251a25.9,25.9,0,0,0-15,4.95v40A31.63,31.63,0,0,0,468.49,299.4Z"/><path class="cls-1" d="M537.1,229.69h27.34V241.8l.37.18c6.23-8.81,15-13.39,26.23-13.39a22.35,22.35,0,0,1,5.87.73v26.24a31.93,31.93,0,0,0-7.52-.92c-9.72,0-17.79,2.93-24.4,10.64V320H537.1Z"/><path class="cls-1" d="M654.34,227.67c28.8,0,50.27,20.55,50.27,47.15S683.14,322,654.34,322s-50.27-20.55-50.27-47.15S625.54,227.67,654.34,227.67Zm0,70.26c12.66,0,22.38-10.27,22.38-23.11S667,251.7,654.34,251.7,632,262,632,274.82,641.68,297.93,654.34,297.93Z"/><path class="cls-1" d="M719.48,290c12.47,7.34,27,10.46,35.59,10.46,7.7,0,12.29-2,12.29-7,0-7-10.09-6.24-23.67-9.72-17.06-4.22-27.15-11.38-27.15-26.24.18-19.08,17.06-29.9,39.44-29.9,10.83,0,24.22,2.2,34.49,7.15v24c-11.92-6.79-25.86-9.72-33.94-9.72-7.33,0-11.74,2.2-11.74,6.42,0,6.6,9.73,6.05,23.12,9.35,17.24,4.22,27.7,10.83,27.7,26.42-.18,19.81-17.43,30.64-40.54,30.64-10.83,0-24.77-2.21-35.59-7.52Z"/><path class="cls-1" d="M812.67,179.79h27.89v58l.37.18a43.26,43.26,0,0,1,27.52-10.27c9.54,0,18,3.3,23.66,9.17,5.5,5.87,7.89,13.76,7.89,26.79V320H872.12V268.21c0-6.78-.92-10.09-3.12-12.65-2.39-2.76-5.69-3.86-9.54-3.86-7.16,0-14,3.67-18.9,7.53V320H812.67Z"/><rect class="cls-1" x="375.29" y="186.83" width="27.88" height="27.88"/><rect class="cls-2" x="1.38" y="138.71" width="222.32" height="222.32" rx="10.76" ry="10.76"/><polygon class="cls-3" points="120.4 226.1 61.45 285.06 46.13 269.73 62.75 253.08 89.73 226.1 120.4 226.1"/><polygon class="cls-3" points="125.69 316.03 92.43 316.03 71.31 294.92 87.94 278.28 125.69 316.03"/><polygon class="cls-3" points="163.09 183.41 137.47 183.41 137.47 209.03 163.09 183.41"/><polygon class="cls-3" points="137.47 228.75 137.47 316.53 165.36 316.53 165.36 228.72 165.36 226.27 165.36 200.87 137.47 228.75"/></svg>
